<?xml version="1.0" encoding="UTF-8" standalone="no"?>
<!-- Created with Inkscape (http://www.inkscape.org/) -->

<svg
   xmlns:dc="http://purl.org/dc/elements/1.1/"
   xmlns:cc="http://creativecommons.org/ns#"
   xmlns:rdf="http://www.w3.org/1999/02/22-rdf-syntax-ns#"
   xmlns:svg="http://www.w3.org/2000/svg"
   xmlns="http://www.w3.org/2000/svg"
   xmlns:sodipodi="http://sodipodi.sourceforge.net/DTD/sodipodi-0.dtd"
   xmlns:inkscape="http://www.inkscape.org/namespaces/inkscape"
   width="210mm"
   height="297mm"
   id="svg2"
   version="1.1"
   inkscape:version="0.47 r22583"
   sodipodi:docname="fuji.pdf">
  <defs
     id="defs4">
    <inkscape:perspective
       sodipodi:type="inkscape:persp3d"
       inkscape:vp_x="0 : 526.18109 : 1"
       inkscape:vp_y="0 : 1000 : 0"
       inkscape:vp_z="744.09448 : 526.18109 : 1"
       inkscape:persp3d-origin="372.04724 : 350.78739 : 1"
       id="perspective10" />
  </defs>
  <sodipodi:namedview
     id="base"
     pagecolor="#ffffff"
     bordercolor="#666666"
     borderopacity="1.0"
     inkscape:pageopacity="0.0"
     inkscape:pageshadow="2"
     inkscape:zoom="1.4142136"
     inkscape:cx="172.44913"
     inkscape:cy="901.3609"
     inkscape:document-units="px"
     inkscape:current-layer="layer1"
     showgrid="true"
     inkscape:window-width="1680"
     inkscape:window-height="994"
     inkscape:window-x="-4"
     inkscape:window-y="-4"
     inkscape:window-maximized="1"
     inkscape:snap-global="true">
    <inkscape:grid
       type="xygrid"
       id="grid2816" />
  </sodipodi:namedview>
  <metadata
     id="metadata7">
    <rdf:RDF>
      <cc:Work
         rdf:about="">
        <dc:format>image/svg+xml</dc:format>
        <dc:type
           rdf:resource="http://purl.org/dc/dcmitype/StillImage" />
        <dc:title></dc:title>
      </cc:Work>
    </rdf:RDF>
  </metadata>
  <g
     inkscape:label="Ebene 1"
     inkscape:groupmode="layer"
     id="layer1">
    <g
       id="logo">
      <path
         sodipodi:nodetypes="cccc"
         id="path3667"
         d="m 80,162.36218 c 120,-60 160,-119.999991 160,-119.999991 30,9.999994 60,-6e-6 60,-6e-6 40,59.999997 160,119.999997 160,119.999997"
         style="fill:none;stroke:#f4d7d7;stroke-width:4;stroke-linecap:butt;stroke-linejoin:miter;stroke-miterlimit:4;stroke-opacity:1;stroke-dasharray:none" />
      <path
         id="path3679"
         d="m 220,62.362183 20,10 10,-10 10,10 10,-10 10,10 10,-10 10,10 20,-10"
         style="fill:none;stroke:#e9afaf;stroke-width:0;stroke-linecap:butt;stroke-linejoin:miter;stroke-opacity:1;stroke-miterlimit:4;stroke-dasharray:none" />
      <path
         sodipodi:nodetypes="cscccccccsc"
         id="path3691"
         d="M 80,162.36218 C 100.83532,151.01624 121.58805,140.24845 142.70066,126.9615 158.21428,117.1982 173.92221,106.07471 190,92.36219 l 20,9.99999 40,-19.999997 10,10 40,-10 30,19.999997 20,-9.99999 c 13.66236,11.48901 29.69999,22.97803 47.79855,34.46705 18.65826,11.84431 39.50689,23.68863 62.20145,35.53294"
         style="fill:#f4d7d7;stroke:#f4d7d7;stroke-width:1px;stroke-linecap:butt;stroke-linejoin:miter;stroke-opacity:1" />
      <path
         sodipodi:nodetypes="ccccccccccccccccccc"
         id="path3693"
         d="m 460,184.36218 0,-40 -30,18 -40,-10 -20,12 -30,-12 -30,10 -20,-10 -20,10 -10,-10 -30,0 -20,10 -20,-10 -30,10 -20,-10 -30,10 -30,-28 0,40 0,0"
         style="fill:#ffffff;stroke:#ffffff;stroke-width:1px;stroke-linecap:butt;stroke-linejoin:miter;stroke-opacity:1" />
      <text
         sodipodi:linespacing="125%"
         id="text3635"
         y="146.36218"
         x="127.15625"
         style="font-size:144px;font-style:normal;font-variant:normal;font-weight:300;font-stretch:normal;text-align:center;line-height:125%;writing-mode:lr-tb;text-anchor:middle;fill:#c83737;fill-opacity:1;stroke:none;font-family:Albertus MT Lt;-inkscape-font-specification:Albertus MT Lt Light"
         xml:space="preserve"><tspan
           y="146.36218"
           x="127.15625"
           id="tspan3637"
           sodipodi:role="line">Fuji</tspan></text>
    </g>
  </g>
</svg>
